<svg width="42" height="39" viewBox="0 0 42 39" fill="none" xmlns="http://www.w3.org/2000/svg">
<path d="M16.2448 3.62695C17.7416 -0.979608 24.2586 -0.979601 25.7554 3.62695L27.062 7.64824C27.7313 9.70836 29.6511 11.1032 31.8173 11.1032H36.0455C40.8891 11.1032 42.903 17.3012 38.9844 20.1482L35.5637 22.6335C33.8113 23.9068 33.078 26.1636 33.7473 28.2237L35.0539 32.245C36.5507 36.8515 31.2783 40.6822 27.3597 37.8352L23.939 35.3499C22.1866 34.0766 19.8136 34.0766 18.0612 35.3499L14.6404 37.8352C10.7219 40.6822 5.44949 36.8515 6.94625 32.245L8.25284 28.2237C8.92221 26.1636 8.18892 23.9068 6.43649 22.6335L3.01577 20.1482C-0.9028 17.3012 1.11108 11.1032 5.9547 11.1032H10.1829C12.3491 11.1032 14.2688 9.70835 14.9382 7.64824L16.2448 3.62695Z" fill="#FF542C"/>
</svg>
