<svg width="30" height="22" viewBox="0 0 30 22" fill="none" xmlns="http://www.w3.org/2000/svg">
<path d="M25.4519 2.43969C22.919 0.367142 18.9121 0.0158197 18.7406 0.00318206C18.4746 -0.0195653 18.2211 0.132085 18.1117 0.382307C18.1018 0.397472 18.0148 0.602199 17.9178 0.920664C19.5932 1.2088 21.6513 1.7876 23.5131 2.96288C23.8113 3.14992 23.9033 3.54926 23.7194 3.85256C23.5976 4.05224 23.3913 4.16092 23.1775 4.16092C23.0632 4.16092 22.9463 4.12806 22.8419 4.06235C19.6404 2.04287 15.6435 1.94177 14.8729 1.94177C14.1023 1.94177 10.1029 2.04287 6.90386 4.06235C6.60558 4.25191 6.21284 4.15839 6.0289 3.85509C5.84248 3.54926 5.93445 3.15245 6.23273 2.96288C8.09449 1.79012 10.1526 1.2088 11.828 0.923192C11.731 0.6022 11.644 0.4 11.6366 0.382307C11.5247 0.132085 11.2737 -0.0246203 11.0052 0.00318206C10.8337 0.0158197 6.8268 0.367142 4.25911 2.46749C2.91934 3.72872 0.237305 11.0989 0.237305 17.4707C0.237305 17.5845 0.267133 17.6931 0.321817 17.7917C2.17115 21.0977 7.21954 21.9621 8.3704 22C8.37537 22 8.38283 22 8.39028 22C8.59411 22 8.78551 21.9014 8.90482 21.7346L10.0681 20.1069C6.92871 19.2829 5.32546 17.8827 5.23349 17.7993C4.97001 17.5642 4.94515 17.1548 5.17881 16.8869C5.40997 16.619 5.81265 16.5937 6.07613 16.8287C6.11342 16.8641 9.06639 19.4118 14.8729 19.4118C20.6894 19.4118 23.6423 16.854 23.6721 16.8287C23.9356 16.5962 24.3358 16.619 24.5695 16.8894C24.8006 17.1573 24.7758 17.5642 24.5123 17.7993C24.4203 17.8827 22.8171 19.2829 19.6777 20.1069L20.841 21.7346C20.9603 21.9014 21.1517 22 21.3555 22C21.363 22 21.3704 22 21.3754 22C22.5263 21.9621 27.5746 21.0977 29.424 17.7917C29.4787 17.6931 29.5085 17.5845 29.5085 17.4707C29.5085 11.0989 26.8265 3.72872 25.4519 2.43969ZM10.7368 14.8826C9.50635 14.8826 8.5096 13.725 8.5096 12.2944C8.5096 10.8638 9.50635 9.70625 10.7368 9.70625C11.9672 9.70625 12.9639 10.8638 12.9639 12.2944C12.9639 13.725 11.9672 14.8826 10.7368 14.8826ZM19.009 14.8826C17.7786 14.8826 16.7819 13.725 16.7819 12.2944C16.7819 10.8638 17.7786 9.70625 19.009 9.70625C20.2394 9.70625 21.2362 10.8638 21.2362 12.2944C21.2362 13.725 20.2394 14.8826 19.009 14.8826Z" fill="white"/>
</svg>
