<svg width="23" height="22" viewBox="0 0 23 22" fill="none" xmlns="http://www.w3.org/2000/svg">
<path d="M7.37661 0C3.76311 0 0.82486 2.91504 0.82486 6.5V15.5C0.82486 19.085 3.76311 22 7.37661 22H16.4483C20.0618 22 23 19.085 23 15.5V6.5C23 2.91504 20.0618 0 16.4483 0H7.37661ZM17.9602 4C18.5144 4 18.9682 4.4502 18.9682 5C18.9682 5.5498 18.5144 6 17.9602 6C17.406 6 16.9522 5.5498 16.9522 5C16.9522 4.4502 17.406 4 17.9602 4ZM11.9124 5.5C14.9717 5.5 17.4562 7.96484 17.4562 11C17.4562 14.0352 14.9717 16.5 11.9124 16.5C8.85311 16.5 6.36864 14.0352 6.36864 11C6.36864 7.96484 8.85311 5.5 11.9124 5.5ZM11.9124 6.5C9.41221 6.5 7.37661 8.51953 7.37661 11C7.37661 13.4805 9.41221 15.5 11.9124 15.5C14.4126 15.5 16.4483 13.4805 16.4483 11C16.4483 8.51953 14.4126 6.5 11.9124 6.5Z" fill="white"/>
</svg>
