<svg width="26" height="22" viewBox="0 0 26 22" fill="none" xmlns="http://www.w3.org/2000/svg">
<path d="M24.6158 0.302436C24.1921 -0.0473654 23.5267 -0.0974155 22.8387 0.171535H22.8376C22.114 0.454236 2.35488 8.70646 1.55051 9.04361C1.40421 9.09311 0.126477 9.55731 0.258091 10.5913C0.375583 11.5236 1.40251 11.9097 1.52791 11.9542L6.55128 13.629C6.88456 14.7092 8.11314 18.6945 8.38484 19.5459C8.55431 20.0766 8.83053 20.774 9.31462 20.9176C9.7394 21.0771 10.1619 20.9313 10.4353 20.7223L13.5065 17.9487L18.4643 21.7134L18.5824 21.7822C18.9191 21.9274 19.2416 22 19.5495 22C19.7873 22 20.0155 21.9566 20.2335 21.8696C20.9763 21.5726 21.2734 20.8835 21.3045 20.8054L25.0078 2.06299C25.2337 1.06199 24.9197 0.552686 24.6158 0.302436ZM10.9815 14.2989L9.28694 18.6989L7.59234 13.1989L20.5843 3.84885L10.9815 14.2989Z" fill="white"/>
</svg>
