<svg width="28" height="22" viewBox="0 0 28 22" fill="none" xmlns="http://www.w3.org/2000/svg">
<path d="M27.4972 2.60363C26.4835 3.04671 25.397 3.3442 24.2548 3.47924C25.4206 2.79141 26.3164 1.70269 26.7364 0.407212C25.6477 1.04229 24.4369 1.50436 23.1533 1.75333C22.1246 0.67306 20.6588 0 19.0365 0C15.9205 0 13.3939 2.48547 13.3939 5.55328C13.3939 5.98792 13.4453 6.41201 13.5418 6.81922C8.85284 6.58713 4.69751 4.37595 1.91372 1.01487C1.42726 1.83773 1.15081 2.79141 1.15081 3.80838C1.15081 5.73473 2.14517 7.43531 3.66029 8.4333C2.7345 8.40376 1.86443 8.15268 1.10366 7.73703C1.10366 7.76024 1.10366 7.78345 1.10366 7.80666C1.10366 10.4989 3.04953 12.7417 5.62759 13.2544C5.15612 13.381 4.6568 13.4485 4.14247 13.4485C3.77816 13.4485 3.42456 13.4148 3.07953 13.3473C3.79959 15.5521 5.88261 17.162 8.34923 17.2063C6.42051 18.6959 3.98817 19.582 1.34368 19.582C0.887213 19.582 0.439321 19.5567 0 19.504C2.49448 21.0822 5.46043 22 8.64711 22C19.0236 22 24.6984 13.5372 24.6984 6.19891C24.6984 5.95838 24.692 5.71574 24.6834 5.47943C25.7849 4.69665 26.7407 3.71766 27.4972 2.60363Z" fill="white"/>
</svg>
